<svg width="17" height="14" viewBox="0 0 17 14" fill="none" xmlns="http://www.w3.org/2000/svg">
<path id="Subtract" fill-rule="evenodd" clip-rule="evenodd" d="M1 0.523804C0.447715 0.523804 0 0.971518 0 1.5238V12.4762C0 13.0285 0.447715 13.4762 1 13.4762H16C16.5523 13.4762 17 13.0285 17 12.4762V1.5238C17 0.971519 16.5523 0.523804 16 0.523804H1ZM1.87256 2.52141C1.63454 2.3814 1.32809 2.46085 1.18808 2.69887C1.04807 2.93688 1.12752 3.24333 1.36554 3.38334L7.73947 7.13271C8.20889 7.40885 8.79111 7.40885 9.26053 7.13271L15.6345 3.38334C15.8725 3.24333 15.9519 2.93688 15.8119 2.69887C15.6719 2.46085 15.3655 2.3814 15.1274 2.52141L8.75351 6.27078C8.59704 6.36282 8.40296 6.36282 8.24649 6.27078L1.87256 2.52141Z" fill="#C9D4F3"/>
</svg>
