<svg width="39" height="32" viewBox="0 0 39 32" fill="none" xmlns="http://www.w3.org/2000/svg">
<path d="M2 7.14943H19.5L15.838 2.39018C15.6487 2.14416 15.3558 2 15.0454 2H3C2.44771 2 2 2.44772 2 3V7.14943Z" fill="#FCD751"/>
<path d="M2 7.14943V29C2 29.5523 2.44772 30 3 30H36C36.5523 30 37 29.5523 37 29V8.14943C37 7.59714 36.5523 7.14943 36 7.14943H19.5M2 7.14943H19.5M2 7.14943V3C2 2.44772 2.44771 2 3 2H15.0454C15.3558 2 15.6487 2.14416 15.838 2.39018L19.5 7.14943" stroke="#FCD751" stroke-width="4"/>
</svg>
