<svg width="50" height="50" viewBox="0 0 50 50" fill="none" xmlns="http://www.w3.org/2000/svg">
<circle cx="25" cy="25" r="25" fill="#C9D4F3"/>
<path fill-rule="evenodd" clip-rule="evenodd" d="M25 15.2467C19.475 15.2467 15 19.7217 15 25.2467C15 29.6717 17.8625 33.4092 21.8375 34.7342C22.3375 34.8217 22.525 34.5217 22.525 34.2592C22.525 34.0217 22.5125 33.2342 22.5125 32.3967C20 32.8592 19.35 31.7842 19.15 31.2217C19.0375 30.9342 18.55 30.0467 18.125 29.8092C17.775 29.6217 17.275 29.1592 18.1125 29.1467C18.9 29.1342 19.4625 29.8717 19.65 30.1717C20.55 31.6842 21.9875 31.2592 22.5625 30.9967C22.65 30.3467 22.9125 29.9092 23.2 29.6592C20.975 29.4092 18.65 28.5467 18.65 24.7217C18.65 23.6342 19.0375 22.7342 19.675 22.0342C19.575 21.7842 19.225 20.7592 19.775 19.3842C19.775 19.3842 20.6125 19.1217 22.525 20.4092C23.325 20.1842 24.175 20.0717 25.025 20.0717C25.875 20.0717 26.725 20.1842 27.525 20.4092C29.4375 19.1092 30.275 19.3842 30.275 19.3842C30.825 20.7592 30.475 21.7842 30.375 22.0342C31.0125 22.7342 31.4 23.6217 31.4 24.7217C31.4 28.5592 29.0625 29.4092 26.8375 29.6592C27.2 29.9717 27.5125 30.5717 27.5125 31.5092C27.5125 32.8467 27.5 33.9217 27.5 34.2592C27.5 34.5217 27.6875 34.8342 28.1875 34.7342C30.1727 34.064 31.8977 32.7882 33.1198 31.0862C34.3419 29.3843 34.9995 27.342 35 25.2467C35 19.7217 30.525 15.2467 25 15.2467Z" fill="#0B192F"/>
</svg>
