<svg width="50" height="50" viewBox="0 0 50 50" fill="none" xmlns="http://www.w3.org/2000/svg">
<circle cx="25" cy="25" r="25" fill="#C9D4F3"/>
<path d="M34 17.3235V32.6765C34 33.0275 33.8606 33.3641 33.6123 33.6123C33.3641 33.8606 33.0275 34 32.6765 34H17.3235C16.9725 34 16.6359 33.8606 16.3877 33.6123C16.1394 33.3641 16 33.0275 16 32.6765V17.3235C16 16.9725 16.1394 16.6359 16.3877 16.3877C16.6359 16.1394 16.9725 16 17.3235 16H32.6765C33.0275 16 33.3641 16.1394 33.6123 16.3877C33.8606 16.6359 34 16.9725 34 17.3235ZM21.2941 22.8824H18.6471V31.3529H21.2941V22.8824ZM21.5324 19.9706C21.5337 19.7704 21.4957 19.5718 21.4204 19.3863C21.345 19.2008 21.2339 19.0319 21.0933 18.8893C20.9527 18.7468 20.7854 18.6333 20.6009 18.5554C20.4165 18.4775 20.2185 18.4367 20.0182 18.4353H19.9706C19.5634 18.4353 19.1729 18.597 18.885 18.885C18.597 19.1729 18.4353 19.5634 18.4353 19.9706C18.4353 20.3778 18.597 20.7683 18.885 21.0562C19.1729 21.3441 19.5634 21.5059 19.9706 21.5059C20.1708 21.5108 20.3701 21.4762 20.557 21.4041C20.7438 21.332 20.9147 21.2238 21.0597 21.0856C21.2047 20.9475 21.3211 20.7821 21.4022 20.599C21.4833 20.4158 21.5275 20.2185 21.5324 20.0182V19.9706ZM31.3529 26.2071C31.3529 23.6606 29.7329 22.6706 28.1235 22.6706C27.5966 22.6442 27.0719 22.7564 26.6019 22.9961C26.1318 23.2358 25.7328 23.5945 25.4447 24.0365H25.3706V22.8824H22.8824V31.3529H25.5294V26.8476C25.4911 26.3862 25.6365 25.9283 25.9339 25.5735C26.2313 25.2186 26.6567 24.9954 27.1176 24.9524H27.2182C28.06 24.9524 28.6847 25.4818 28.6847 26.8159V31.3529H31.3318L31.3529 26.2071Z" fill="#0B192F"/>
</svg>
