<svg width="22" height="11" viewBox="0 0 22 11" fill="none" xmlns="http://www.w3.org/2000/svg">
<path fill-rule="evenodd" clip-rule="evenodd" d="M9.68 0H5.28C2.36394 0 0 2.36394 0 5.28C0 8.19606 2.36394 10.56 5.28 10.56H9.68V8.56H5.28C3.46851 8.56 2 7.09149 2 5.28C2 3.46851 3.46851 2 5.28 2H9.68V0ZM12.9486 8.56H16.72C18.5315 8.56 20 7.09149 20 5.28C20 3.46851 18.5315 2 16.72 2H12.9486V0H16.72C19.6361 0 22 2.36394 22 5.28C22 8.19606 19.6361 10.56 16.72 10.56H12.9486V8.56Z" fill="#C9D4F3"/>
<rect x="6.16016" y="4.39999" width="9.68" height="1.76" rx="0.88" fill="#C9D4F3"/>
</svg>
