<svg width="135" height="191" viewBox="0 0 135 191" fill="none" xmlns="http://www.w3.org/2000/svg">
<path fill-rule="evenodd" clip-rule="evenodd" d="M55.4002 43.8637V52.9157C62.0534 53.3751 68.1201 55.2032 73.6002 58.4C80.0002 62.1333 85.0002 67.3333 88.6002 74C90.0188 76.5333 91.1679 79.2013 92.0475 82.0041C92.2977 82.0014 92.5486 82 92.8002 82C96.2613 82 99.5375 82.2598 102.629 82.7794C101.497 78.014 99.7543 73.5542 97.4002 69.4C93.0002 61.2666 86.8669 55 79.0002 50.6C71.8949 46.5054 64.0283 44.26 55.4002 43.8637ZM103.97 102.357C101.107 100.897 97.8297 99.9436 94.1366 99.4963C93.7811 106.943 91.9357 113.644 88.6002 119.6C85.0002 126.267 80.0002 131.467 73.6002 135.2C68.1201 138.397 62.0534 140.225 55.4002 140.684V149.736C64.0283 149.34 71.8949 147.095 79.0002 143C86.8669 138.467 93.0002 132.2 97.4002 124.2C101.099 117.673 103.288 110.393 103.97 102.357ZM36.2002 147.25V137.989C34.1989 137.218 32.2656 136.288 30.4002 135.2C24.1335 131.467 19.1335 126.267 15.4002 119.6C11.8002 112.933 10.0002 105.333 10.0002 96.8C10.0002 88.2666 11.8002 80.6666 15.4002 74C19.1335 67.3333 24.1335 62.1333 30.4002 58.4C32.2656 57.3118 34.1989 56.3823 36.2002 55.6113V46.4346C33.216 47.4581 30.3494 48.7799 27.6002 50.4C20.1335 54.6666 14.3335 60.6666 10.2002 68.4V0.599976H0.200195V149H9.8002V124.4C13.9335 132.4 19.7335 138.667 27.2002 143.2C30.0761 144.865 33.0761 146.215 36.2002 147.25Z" fill="black"/>
<path d="M92.2002 85.7999C105.267 85.7999 115.6 89.5999 123.2 97.1999C130.8 104.8 134.6 115.733 134.6 130V191H124.6V130.8C124.6 119.067 121.6 110.133 115.6 104C109.734 97.8666 101.467 94.7999 90.8002 94.7999C78.5335 94.7999 68.8669 98.4666 61.8002 105.8C54.7335 113.133 51.2002 123 51.2002 135.4V191H41.2002V44.7883C41.2002 44.7883 44.1098 44.1882 46 44C48.0218 43.7987 51.2002 43.8373 51.2002 43.8373V108.4C54.8002 101.2 60.1335 95.6666 67.2002 91.7999C74.2669 87.7999 82.6002 85.7999 92.2002 85.7999Z" fill="black"/>
</svg>
